<svg xmlns="http://www.w3.org/2000/svg" width="52" height="46" viewBox="0 0 52 46">
  <defs>
    <style>
      .cls-1 {
        fill: #fff;
        fill-rule: evenodd;
      }
    </style>
  </defs>
  <path id="Forma_1" data-name="Forma 1" class="cls-1" d="M675.642,887.858l-10.5-15.895a2.935,2.935,0,0,0-1.909-.964,2.162,2.162,0,0,0-1.908.964l-10.5,15.895h-11.45A2.264,2.264,0,0,0,637,890.266v0.723l5.963,22.4A4.873,4.873,0,0,0,647.5,917H678.5a4.607,4.607,0,0,0,4.533-3.612l5.963-22.4v-0.723a2.264,2.264,0,0,0-2.385-2.408H675.642Zm-19.56,0,7.156-10.6,7.156,10.6H656.082Zm4.08,12.119c1.313,0,2.381-1.441,2.381-3.212s-1.068-3.211-2.381-3.211-2.382,1.44-2.382,3.211S658.848,899.977,660.162,899.977Zm5.676,0c1.312,0,2.381-1.441,2.381-3.212s-1.069-3.211-2.381-3.211-2.381,1.44-2.381,3.211S664.524,899.977,665.838,899.977Zm4.445-1.6c-1.033-.2-2.051.711-2.321,2.086s0.329,2.609,1.362,2.813,2.051-.711,2.32-2.084S671.315,898.579,670.283,898.375Zm-13.607,4.9c1.033-.2,1.63-1.44,1.361-2.813s-1.288-2.29-2.321-2.086-1.631,1.44-1.361,2.815S655.644,903.479,656.676,903.274ZM666.594,904a5.007,5.007,0,1,0-5.738,7.016,3.615,3.615,0,0,1,4.287,0A3.662,3.662,0,0,0,666.594,904Z" transform="translate(-637 -871)"/>
</svg>
