<svg xmlns="http://www.w3.org/2000/svg" width="70" height="105" viewBox="0 0 70 105">
  <defs>
    <style>
      .cls-1 {
        fill-rule: evenodd;
      }
    </style>
  </defs>
  <path id="Forma_1" data-name="Forma 1" class="cls-1" d="M542,4883.09c-0.509-4.23-5.193-4.71-7.916-4.42-2.9-10.9,7.214-27.14,7.808-30.98,0.64-4.14-2.96-28.18-3.339-40.36-0.392-12.5-18.58-26.3-21.617-24.1-3.009,3.32,4.334,7.81.469,11.65-3.734,3.71-4.708,6.21-7.481,10.41-7.1,10.76,12.146,10.9,12.146,10.9s-15.064,11.14-18.415,16.76c-3.087,5.17-4.382,10.96-8.106,15.84-8.49,11.11-6.577,30.5-6.577,30.5s-16.081-5.26-7.231-23.58c6.737-13.95,10.056-34.54-5.1-29.24-5.864,2.05,1.311,6.35,2.549,7.73,4.143,4.62.641,12.38-1.856,16.87-6.686,12.02-9.113,24.62,4.959,32.39,6.253,3.45,14.7,4.3,23.195,4.43l21.625,0.06C534.235,4888.3,542.293,4886.97,542,4883.09Z" transform="translate(-472 -4783)"/>
</svg>