<svg xmlns="http://www.w3.org/2000/svg" width="60" height="53" viewBox="0 0 60 53">
  <defs>
    <style>
      .cls-1 {
        fill: #fff;
        fill-rule: evenodd;
      }
    </style>
  </defs>
  <path class="cls-1" d="M646.662,880.972c2.294,1.147,4.362,2.193,6.442,3.215a3.353,3.353,0,0,1,2.031,2.739c0.7,4.6,1.557,9.173,2.38,13.919H676.63c0.359-1.369.741-2.827,1.227-4.679-1.068,0-1.833,0-2.6,0-3.725.019-7.45,0.052-11.174,0.049-0.83,0-1.985.157-1.829-1.15a2.271,2.271,0,0,1,1.762-.956c3.923-.088,7.848-0.042,11.773-0.048,2.794,0,2.795-.009,3.326-2.747,0.075-.388.127-0.78,0.231-1.422-0.806-.064-1.5-0.166-2.193-0.168-3.924-.014-7.849,0-11.774,0-0.4,0-.8.02-1.2,0-0.878-.038-1.97-0.044-1.758-1.282a2.205,2.205,0,0,1,1.715-1.069c2.588-.12,5.186-0.056,7.78-0.055,2.727,0,5.455-.013,8.181.02,2,0.024,2.567.681,2.061,2.629-1.033,3.98-2.168,7.933-3.265,11.9a2.225,2.225,0,0,1-2.332,1.8q-9.579.006-19.157,0a2.256,2.256,0,0,1-2.395-2.191c-0.735-4.119-1.608-8.213-2.273-12.343-0.25-1.557-.7-2.607-2.329-3.058a28.976,28.976,0,0,1-4.075-1.63c-2.21-1-2.59-2.279-1.344-4.306a26.006,26.006,0,0,1,31.169-10.469,26.583,26.583,0,0,1,16.5,28.809c-1.923,11.72-10.284,20.2-21.872,22.181-10.754,1.84-21.677-3.884-27.1-14.112A28.735,28.735,0,0,0,640.9,902.9c-3.4.592-5.071-1.492-5.935-4.762-0.428-1.622-1.208-3.146-1.689-4.757a5.613,5.613,0,0,1,10.57-3.78c0.666,1.618,1.146,3.32,1.876,4.9,1.257,2.728,1.147,5.1-1.355,6.9,0.64,9.431,12.508,17.778,22.157,17.761a24.739,24.739,0,0,0,11.751-46.484,23.988,23.988,0,0,0-29.994,6.063C647.745,879.4,647.278,880.118,646.662,880.972Zm-4.993,20.487q-1.156-3.028-2.307-6.038c-3.363,1.268-3.747,1.719-3.127,3.429C637.349,901.923,638.652,902.594,641.669,901.459Zm0.908-.281c3.358-1.668,3.756-3.36,1.723-7.05l-4.06.787Zm33.2,7.5A2.819,2.819,0,1,1,672.8,905.9,2.782,2.782,0,0,1,675.777,908.674Zm-12.735.155a2.811,2.811,0,1,1-5.618-.174A2.811,2.811,0,1,1,663.042,908.829Z" transform="translate(-633 -868)"/>
</svg>
