<svg xmlns="http://www.w3.org/2000/svg" width="80" height="108.97" viewBox="0 0 80 108.97">
  <defs>
    <style>
      .cls-1 {
        fill-rule: evenodd;
      }
    </style>
  </defs>
  <path id="Forma_1" data-name="Forma 1" class="cls-1" d="M734.175,4842.94a84.24,84.24,0,0,0-4.036-9.94,96.8,96.8,0,0,0-11.375-18.11,42.241,42.241,0,0,0-20.051-14.36c-1.682-.59-4.324-0.71-5.8-1.57a53.661,53.661,0,0,0-19.853-6.82,13.538,13.538,0,0,0-14.81,8.82c-0.149.4-.3,0.82-0.35,0.93a1.581,1.581,0,0,0-.072.21l-0.2.78a2.146,2.146,0,0,1-.5.96,2.567,2.567,0,0,0-.282.24c-1.572,1.51-.624,3.76.209,5.43a27.98,27.98,0,0,0,3.587,4.95,2.143,2.143,0,0,0,.959.55,1.057,1.057,0,0,0,.864.06,1.119,1.119,0,0,0-.117-0.8c-0.088-.2-0.177-0.39-0.27-0.58s-0.184-.4-0.261-0.59c-0.133-.33-0.1-0.59.05-0.6a1.2,1.2,0,0,0,.265-0.03c0.195-.03.389-0.05,0.584-0.08a3.159,3.159,0,0,1,.938.02,1.492,1.492,0,0,0,.37.02,19.349,19.349,0,0,0,5.585-1.07,1.475,1.475,0,0,0,.369-0.18,2.279,2.279,0,0,1,.8-0.31,2.4,2.4,0,0,0,.492-0.15,0.03,0.03,0,0,0,.019-0.01c0.012,0,.016.01,0.01,0.03a4.772,4.772,0,0,0,.656.43c0.737,0.43,1.429.83,2.122,1.24q0.685,0.39,1.365.78a1.228,1.228,0,0,1,.648.79c0,0.13,0,.26,0,0.39,0.023,4.42,3.127,9.53,7.033,11.95a9.07,9.07,0,0,1,1.228.91c0.466,0.43.943,0.86,1.432,1.27a3.953,3.953,0,0,1,.917,1.19c0.415,0.9.83,1.81,1.245,2.71a13.727,13.727,0,0,1,.544,1.44c0.407,1.34.821,2.68,1.266,4a0.5,0.5,0,0,1-.522.71,8.808,8.808,0,0,0-4.447,1.27,1.905,1.905,0,0,1-1.379.21l-11.034-3.27c-2.388-.71-3.4,3.01-1.024,3.72q4.68,1.38,9.36,2.77a0.893,0.893,0,0,1,.684.48,6.727,6.727,0,0,0,.12,1.03,2.023,2.023,0,0,0,1.155,1.42c0.077,0.04.155,0.08,0.385,0.19,0.213,0.1.36,0.13,0.326,0.07a0.374,0.374,0,0,1,.188-0.25,0.633,0.633,0,0,0,.129-0.25,4.836,4.836,0,0,1,.323-0.93,0.877,0.877,0,0,1,.953-0.49,1.188,1.188,0,0,1,.63.93,3.485,3.485,0,0,0,.178.59,5.159,5.159,0,0,0,.761,1.33,1.113,1.113,0,0,0,.2.18,3.19,3.19,0,0,0,.947.39,2.081,2.081,0,0,0,.244.1,0.593,0.593,0,0,0,.178.03c0.1,0,.276.02,0.408,0.01a0.754,0.754,0,0,0,.681-0.61v-0.01a4.534,4.534,0,0,0-.817-1.23l-0.016-.03c-0.162-.4.116-0.64,0.524-0.52q5.332,1.575,10.665,3.16a2,2,0,0,0,.523.08,0.633,0.633,0,0,1,.587.66,4.881,4.881,0,0,1-.048.72,0.579,0.579,0,0,0,.14.48,1.2,1.2,0,0,0,.81.34,0.479,0.479,0,0,0,.326-0.19,5.717,5.717,0,0,0,.469-0.63,0.956,0.956,0,0,1,1.1-.41c0.962,0.36,2.656.99,3.619,1.35a1.346,1.346,0,0,1,.8,1.04,132.552,132.552,0,0,0,3.255,18.81c0.006,0.02.013,0.04,0.022,0.07a1.334,1.334,0,0,0,.406.71,1.36,1.36,0,0,0,2.217-.97,13.059,13.059,0,0,0-.3-2.73,3.689,3.689,0,0,1-.056-1.69c0-.01.528-0.85,0.519-0.53a1.188,1.188,0,0,0,.023.3c0.033,0.17.142,0.64,0.2,1.06a92.357,92.357,0,0,0,3.3,14.95c1.859,5.89,4.37,11.45,8.851,15.88a14.56,14.56,0,0,0,1.571,1.29,0.963,0.963,0,0,0,.843.29,1.029,1.029,0,0,0,.1-0.84,1.8,1.8,0,0,0-.224-0.63c-1.2-1.88-6.218-10.48-3.731-12.7a0.782,0.782,0,0,1,.815-0.23,1.276,1.276,0,0,1,.609.82c0.026,0.1.052,0.19,0.079,0.29a29.982,29.982,0,0,0,5.434,11.23,32.207,32.207,0,0,0,3.139,3.01,0.826,0.826,0,0,0,.888.26,0.988,0.988,0,0,0,.066-0.98,3.516,3.516,0,0,0-.332-0.72c-5.64-8.81-8.274-18.66-9.507-28.87q-0.7-12.765-1.4-25.55a0.393,0.393,0,0,1,.635-0.4,73.186,73.186,0,0,1,10.395,6.84c0.334,0.27.381,0.21,0.235-.19C735.224,4849.15,734.529,4844.01,734.175,4842.94Zm-35.284-2.47a5.525,5.525,0,0,1-1.294,1.72,3.844,3.844,0,0,1-1.342.66,5.855,5.855,0,0,0-.7.24,2.312,2.312,0,0,1-1,.25,0.543,0.543,0,0,1-.352-0.34,1.418,1.418,0,0,1,.268-0.67,3.642,3.642,0,0,0,.233-0.49c0.277-.68.85-1.23,1.189-1.89,0.175-.34.349-0.68,0.519-1.03a8.673,8.673,0,0,1,.487-0.88c0.049-.06.1-0.12,0.144-0.19l1.243-1.8a1.884,1.884,0,0,1,.534-0.61,0.119,0.119,0,0,1,.1.08c0,0.01,0,.03,0,0.05v0.15c0,0.09-.046.13-0.1,0.11s-0.053.07,0,.22a4.277,4.277,0,0,1,.1,1.04v1.35a3.711,3.711,0,0,0,.062.67A2.534,2.534,0,0,1,698.891,4840.47Zm7.859,6.55c-0.631-.24-1.263-0.47-1.893-0.71a4.8,4.8,0,0,1-1.192-.75,0.788,0.788,0,0,1-.145-1.03c0.543-.87,1.086-1.74,1.615-2.62a8.155,8.155,0,0,0,.43-0.78c0.185-.38.457-0.99,0.6-1.36s0.372-1,.535-1.39a6.41,6.41,0,0,0,.233-0.68,4.577,4.577,0,0,1,.224-0.74,2.932,2.932,0,0,1,.048.79c-0.027,2.93.053,5.85,0.22,8.77A0.466,0.466,0,0,1,706.75,4847.02Z" transform="translate(-656 -4792)"/>
</svg>
