<svg xmlns="http://www.w3.org/2000/svg" width="34" height="56" viewBox="0 0 34 56">
  <defs>
    <style>
      .cls-1 {
        fill: #fff;
        fill-rule: evenodd;
      }
    </style>
  </defs>
  <path id="Forma_1_copy_15" data-name="Forma 1 copy 15" class="cls-1" d="M125.217,877.735c2.513,0,4.557-2.63,4.557-5.864s-2.044-5.865-4.557-5.865-4.557,2.631-4.557,5.865S122.7,877.735,125.217,877.735Zm10.862,0c2.51,0,4.557-2.63,4.557-5.864s-2.046-5.865-4.557-5.865-4.557,2.631-4.557,5.865S133.566,877.735,136.079,877.735Zm8.507-2.925c-1.977-.373-3.927,1.3-4.442,3.809s0.628,4.764,2.6,5.137,3.926-1.3,4.441-3.806S146.56,875.183,144.586,874.81Zm-26.039,8.946c1.977-.373,3.12-2.629,2.605-5.136s-2.465-4.183-4.441-3.809-3.121,2.628-2.605,5.139S116.573,884.129,118.547,883.756Zm12.109,14.116c0.82,0,2.4-.936,4.7-2.783a25.807,25.807,0,0,0,4.38-4.251,6.2,6.2,0,0,0,1.2-3.985,5.721,5.721,0,0,0-5.731-5.383c-2.171,0-3.694,1.551-4.538,2.44a6.37,6.37,0,0,0-4.581-2.44,5.721,5.721,0,0,0-5.73,5.383,6.271,6.271,0,0,0,1.2,3.986C122.809,892.673,128.84,897.872,130.656,897.872Zm6.587,2.992a10.835,10.835,0,0,0-6.209,1.942,10.828,10.828,0,0,0-6.209-1.942,10.569,10.569,0,1,0,0,21.135,10.821,10.821,0,0,0,6.209-1.943A10.821,10.821,0,0,0,137.243,922,10.569,10.569,0,1,0,137.243,900.864Zm-6.209,15.512a7.732,7.732,0,0,1,0-9.89A7.732,7.732,0,0,1,131.034,916.376Zm-14.206-4.945a7.936,7.936,0,0,1,8-7.856,8.056,8.056,0,0,1,4.128,1.13,10.407,10.407,0,0,0,0,13.453,8.056,8.056,0,0,1-4.128,1.13A7.937,7.937,0,0,1,116.828,911.431Zm20.415,7.857a8.056,8.056,0,0,1-4.128-1.13,10.407,10.407,0,0,0,0-13.453,8.056,8.056,0,0,1,4.128-1.13A7.858,7.858,0,1,1,137.243,919.288Z" transform="translate(-114 -866)"/>
</svg>
