<svg xmlns="http://www.w3.org/2000/svg" width="54" height="54" viewBox="0 0 54 54">
  <defs>
    <style>
      .cls-1 {
        fill: #fff;
        fill-rule: evenodd;
      }
    </style>
  </defs>
  <path id="Forma_1" data-name="Forma 1" class="cls-1" d="M1223.48,867.522c-1.75-1.753-7.68,1.354-9.43,3.106l-7.01,7.021h-31.86a1.581,1.581,0,0,0-.58,3.05l21.07,8.344-12.92,12.947h-12.22a0.554,0.554,0,0,0-.54.446,0.543,0.543,0,0,0,.34.612l10.28,4.073a4.173,4.173,0,0,0,.25.76l-0.45.451a1.642,1.642,0,0,0,2.32,2.325l0.44-.441a4.254,4.254,0,0,0,.77.26l3.96,10.18a0.549,0.549,0,0,0,.61.339,0.581,0.581,0,0,0,.29-0.151,0.547,0.547,0,0,0,.16-0.388V908.468l13.12-13.152,8.25,21.184a1.582,1.582,0,0,0,1.76.979,1.545,1.545,0,0,0,.82-0.435,1.582,1.582,0,0,0,.47-1.119V884l7-7.02C1222.13,875.224,1225.23,869.275,1223.48,867.522Z" transform="translate(-1170 -867)"/>
</svg>
