<svg xmlns="http://www.w3.org/2000/svg" width="33" height="26" viewBox="0 0 33 26">
  <defs>
    <style>
      .cls-1 {
        fill: #fff;
        fill-rule: evenodd;
      }
    </style>
  </defs>
  <path class="cls-1" d="M554.186,584H528.814A3.812,3.812,0,0,1,525,580.2V564.773a3.811,3.811,0,0,1,3.814-3.8h5.177l0.453-1.525A1.88,1.88,0,0,1,536.293,558h10.414a1.917,1.917,0,0,1,1.852,1.454l0.012,0.052,0.413,1.465h5.2a3.812,3.812,0,0,1,3.814,3.8V580.2A3.814,3.814,0,0,1,554.186,584Zm-25.372-21.762a2.541,2.541,0,0,0-2.543,2.535V580.2a2.541,2.541,0,0,0,2.543,2.535h25.372a2.541,2.541,0,0,0,2.542-2.535V564.773a2.541,2.541,0,0,0-2.542-2.535h-6.165l-0.695-2.475a0.639,0.639,0,0,0-.62-0.5H536.292a0.631,0.631,0,0,0-.619.5l-0.735,2.474h-6.124Zm12.687,17.93a8.045,8.045,0,1,1,8.066-8.044A8.065,8.065,0,0,1,541.5,580.168Zm0-14.822a6.777,6.777,0,1,0,6.794,6.778A6.8,6.8,0,0,0,541.5,565.346Zm11.864-.755a1.17,1.17,0,1,0,1.172,1.169A1.171,1.171,0,0,0,553.365,564.591Z" transform="translate(-525 -558)"/>
</svg>
