<svg xmlns="http://www.w3.org/2000/svg" width="24" height="23" viewBox="0 0 24 23">
  <defs>
    <style>
      .cls-1 {
        fill: #a2a2a2;
        fill-rule: evenodd;
      }
    </style>
  </defs>
  <path id="Forma_1" data-name="Forma 1" class="cls-1" d="M687.25,939.533h-3v-0.767a0.75,0.75,0,1,0-1.5,0v0.767h-7.5v-0.767a0.75,0.75,0,1,0-1.5,0v0.767h-3a3.756,3.756,0,0,0-3.75,3.833v13.8A3.756,3.756,0,0,0,670.75,961h16.5a3.756,3.756,0,0,0,3.75-3.834v-13.8A3.756,3.756,0,0,0,687.25,939.533Zm-18.75,3.833a2.333,2.333,0,0,1,2.25-2.3h3v0.767a0.75,0.75,0,1,0,1.5,0v-0.767h7.5v0.767a0.75,0.75,0,1,0,1.5,0v-0.767h3a2.333,2.333,0,0,1,2.25,2.3v2.3h-21v-2.3Zm21,13.8a2.333,2.333,0,0,1-2.25,2.3h-16.5a2.333,2.333,0,0,1-2.25-2.3V947.2h21v9.967Zm-17.25,0a1.347,1.347,0,0,0,1.05-.46,1.5,1.5,0,0,0,0-2.146,1.427,1.427,0,0,0-2.1,0,1.4,1.4,0,0,0-.45,1.073,1.677,1.677,0,0,0,.45,1.073A1.347,1.347,0,0,0,672.25,957.166Zm0-4.6a1.347,1.347,0,0,0,1.05-.46,1.5,1.5,0,0,0,0-2.146,1.427,1.427,0,0,0-2.1,0,1.5,1.5,0,0,0,0,2.146A1.347,1.347,0,0,0,672.25,952.566Zm4.5,4.6a1.347,1.347,0,0,0,1.05-.46,1.5,1.5,0,0,0,0-2.146,1.427,1.427,0,0,0-2.1,0,1.5,1.5,0,0,0,0,2.146A1.347,1.347,0,0,0,676.75,957.166Zm0-4.6a1.347,1.347,0,0,0,1.05-.46,1.5,1.5,0,0,0,0-2.146,1.427,1.427,0,0,0-2.1,0,1.5,1.5,0,0,0,0,2.146A1.347,1.347,0,0,0,676.75,952.566Zm4.5,4.6a1.347,1.347,0,0,0,1.05-.46,1.5,1.5,0,0,0,0-2.146,1.427,1.427,0,0,0-2.1,0,1.5,1.5,0,0,0,0,2.146A1.347,1.347,0,0,0,681.25,957.166Zm0-4.6a1.347,1.347,0,0,0,1.05-.46,1.4,1.4,0,0,0,.45-1.073,1.672,1.672,0,0,0-.45-1.073,1.427,1.427,0,0,0-2.1,0,1.5,1.5,0,0,0,0,2.146A1.347,1.347,0,0,0,681.25,952.566Zm4.5,4.6a1.347,1.347,0,0,0,1.05-.46,1.5,1.5,0,0,0,0-2.146,1.427,1.427,0,0,0-2.1,0,1.4,1.4,0,0,0-.45,1.073,1.677,1.677,0,0,0,.45,1.073A1.347,1.347,0,0,0,685.75,957.166Zm0-4.6a1.347,1.347,0,0,0,1.05-.46,1.4,1.4,0,0,0,.45-1.073,1.672,1.672,0,0,0-.45-1.073,1.427,1.427,0,0,0-2.1,0,1.5,1.5,0,0,0,0,2.146A1.347,1.347,0,0,0,685.75,952.566Z" transform="translate(-667 -938)"/>
</svg>
